<svg width="168" height="45" viewBox="0 0 168 45" fill="none" xmlns="http://www.w3.org/2000/svg">
<path d="M14.5648 2.796V9.616H7.74478V2.796H14.5648ZM17.8648 22.464C18.1581 22.464 18.3048 22.6107 18.3048 22.904V30.56C18.3048 30.8533 18.1581 31 17.8648 31H16.1048C15.6354 31 15.2981 30.9853 15.0928 30.956C14.9461 33.0093 14.5208 34.7547 13.8168 36.192C13.1128 37.6587 11.9834 39.008 10.4288 40.24C8.90345 41.472 6.76211 42.7627 4.00478 44.112L0.968781 37.336C3.02211 36.104 4.45945 35.1067 5.28078 34.344C6.10211 33.5813 6.60078 32.8333 6.77678 32.1C6.98211 31.3667 7.08478 30.1787 7.08478 28.536V13.136H15.1808V21.496C15.1808 21.7893 15.2541 22.024 15.4008 22.2C15.5768 22.376 15.8114 22.464 16.1048 22.464H17.8648ZM32.6072 22.068C32.6072 23.6813 32.2112 25.1773 31.4192 26.556C30.6272 27.9053 29.5565 28.9907 28.2072 29.812C26.8579 30.604 25.3619 31 23.7192 31H17.8672C17.5739 31 17.4272 30.8533 17.4272 30.56V22.904C17.4272 22.6107 17.5739 22.464 17.8672 22.464H23.6312C23.8659 22.464 24.0712 22.376 24.2472 22.2C24.4232 22.024 24.5112 21.804 24.5112 21.54V11.904H32.6072V22.068ZM32.6952 34.52V41.34H19.0552V34.52H32.6952ZM44.0596 31C42.4169 31 40.9209 30.604 39.5716 29.812C38.2222 28.9907 37.1516 27.9053 36.3596 26.556C35.5676 25.1773 35.1716 23.6813 35.1716 22.068V0.947999H43.2676V21.54C43.2676 21.8333 43.3409 22.068 43.4876 22.244C43.6636 22.3907 43.8836 22.464 44.1476 22.464H46.8316C47.1249 22.464 47.2716 22.6107 47.2716 22.904V30.56C47.2716 30.8533 47.1249 31 46.8316 31H44.0596ZM60.5561 1.564V8.384H46.9161V1.564H60.5561ZM52.4601 11.904H60.5561V22.068C60.5561 23.6813 60.1601 25.1773 59.3681 26.556C58.5761 27.9053 57.5055 28.9907 56.1561 29.812C54.8068 30.604 53.3108 31 51.6681 31H46.8281C46.5348 31 46.3881 30.8533 46.3881 30.56V22.904C46.3881 22.6107 46.5348 22.464 46.8281 22.464H51.5801C51.8148 22.464 52.0201 22.376 52.1961 22.2C52.3721 22.024 52.4601 21.804 52.4601 21.54V11.904Z" fill="#222F5D"/>
<path d="M96.1535 22.464C96.4468 22.464 96.5935 22.6107 96.5935 22.904V30.56C96.5935 30.8533 96.4468 31 96.1535 31H94.9215C94.9802 31.528 95.0095 31.924 95.0095 32.188C95.0095 33.948 94.5695 35.576 93.6895 37.072C92.8095 38.568 91.6215 39.7413 90.1255 40.592C88.6295 41.472 86.9868 41.912 85.1975 41.912H74.8135C72.6428 41.912 70.6335 41.3693 68.7855 40.284C66.9375 39.1987 65.4708 37.732 64.3855 35.884C63.3002 34.036 62.7575 32.0267 62.7575 29.856V18.24H70.8535V29.416C70.8535 30.5013 71.2348 31.4253 71.9975 32.188C72.7895 32.98 73.7282 33.376 74.8135 33.376H85.3295C85.6815 33.376 85.9748 33.2587 86.2095 33.024C86.4442 32.7893 86.5615 32.5107 86.5615 32.188C86.5615 31.8653 86.4442 31.5867 86.2095 31.352C85.9748 31.1173 85.6815 31 85.3295 31H75.6935V22.464H96.1535ZM96.1562 31C95.8629 31 95.7162 30.8533 95.7162 30.56V22.904C95.7162 22.6107 95.8629 22.464 96.1562 22.464H106.012C108.007 22.464 109.708 21.848 111.116 20.616L114.592 17.536L109.532 15.072C109.122 14.896 108.799 14.808 108.564 14.808C108.036 14.808 107.508 15.0427 106.98 15.512L102.404 20.572L96.7723 15.644L101.392 10.012C102.331 8.89733 103.431 8.09067 104.692 7.592C105.954 7.064 107.215 6.8 108.476 6.8C109.943 6.8 111.336 7.152 112.656 7.856L122.072 12.256C122.219 12.3147 122.336 12.344 122.424 12.344C122.542 12.344 122.63 12.344 122.688 12.344H128.1V20.264H122.468V21.496C122.468 21.7893 122.542 22.024 122.688 22.2C122.864 22.376 123.099 22.464 123.392 22.464H128.892C129.186 22.464 129.332 22.6107 129.332 22.904V30.56C129.332 30.8533 129.186 31 128.892 31H123.392C121.662 31 120.239 30.5893 119.124 29.768C118.039 28.9173 117.144 27.6853 116.44 26.072L115.56 26.952C114.094 28.272 112.436 29.284 110.588 29.988C108.74 30.6627 106.848 31 104.912 31H96.1562ZM101.612 34.52H108.432V41.34H101.612V34.52ZM143.638 22.068C143.638 23.6813 143.242 25.1773 142.45 26.556C141.658 27.9053 140.588 28.9907 139.238 29.812C137.889 30.604 136.393 31 134.75 31H128.898C128.605 31 128.458 30.8533 128.458 30.56V22.904C128.458 22.6107 128.605 22.464 128.898 22.464H134.662C134.897 22.464 135.102 22.376 135.278 22.2C135.454 22.024 135.542 21.804 135.542 21.54V11.904H143.638V22.068ZM143.726 34.52V41.34H130.086V34.52H143.726ZM157.863 22.464C158.625 22.464 159.007 22.156 159.007 21.54C159.007 21.3053 158.919 21.1147 158.743 20.968C158.567 20.792 158.156 20.484 157.511 20.044L147.611 13.224L152.231 6.536L163.451 14.324C164.653 15.2627 165.563 16.26 166.179 17.316C166.795 18.372 167.103 19.692 167.103 21.276C167.103 23.124 166.648 24.796 165.739 26.292C164.859 27.7587 163.656 28.9173 162.131 29.768C160.605 30.5893 158.948 31 157.159 31H146.203V22.464H157.863Z" fill="#FF755C"/>
</svg>
